HIERARCHY
ROOT Hips
{
	OFFSET 0.000000 0.000000 0.000000
	CHANNELS 6 Xposition Yposition Zposition Xrotation Yrotation Zrotation
	JOINT LeftUpLeg_virtual
	{
		OFFSET 0.000000 0.000000 0.000000
		CHANNELS 3 Xrotation Yrotation Zrotation
		JOINT LeftUpLeg
		{
			OFFSET 13.026900 -6.336304 -1.092800
			CHANNELS 3 Xrotation Yrotation Zrotation
			JOINT LeftLeg
			{
				OFFSET 0.524474 -46.096886 9.782700
				CHANNELS 3 Xrotation Yrotation Zrotation
				JOINT LeftFoot
				{
					OFFSET -0.524474 -53.427422 -12.948200
					CHANNELS 3 Xrotation Yrotation Zrotation
					JOINT LeftToeBase
					{
						OFFSET 0.192200 -14.009700 16.364100
						CHANNELS 3 Xrotation Yrotation Zrotation
						JOINT LeftToe_End
						{
							OFFSET -1.784700 -0.561700 9.474800
							CHANNELS 3 Xrotation Yrotation Zrotation
							End Site
							{
								OFFSET 0 0 0
							}
						}
					}
				}
			}
		}
	}
	JOINT RightUpLeg_virtual
	{
		OFFSET 0.000000 0.000000 0.000000
		CHANNELS 3 Xrotation Yrotation Zrotation
		JOINT RightUpLeg
		{
			OFFSET -12.883000 -6.336304 -1.092800
			CHANNELS 3 Xrotation Yrotation Zrotation
			JOINT RightLeg
			{
				OFFSET -0.524587 -46.096825 9.782800
				CHANNELS 3 Xrotation Yrotation Zrotation
				JOINT RightFoot
				{
					OFFSET 0.524587 -53.427383 -12.948300
					CHANNELS 3 Xrotation Yrotation Zrotation
					JOINT RightToeBase
					{
						OFFSET -0.192200 -14.009700 16.364100
						CHANNELS 3 Xrotation Yrotation Zrotation
						JOINT RightToe_End
						{
							OFFSET 1.784700 -0.561700 9.474800
							CHANNELS 3 Xrotation Yrotation Zrotation
							End Site
							{
								OFFSET 0 0 0
							}
						}
					}
				}
			}
		}
	}
	JOINT Spine_virtual
	{
		OFFSET 0.000000 0.000000 0.000000
		CHANNELS 3 Xrotation Yrotation Zrotation
		JOINT Spine
		{
			OFFSET 0.072000 7.257294 -0.789700
			CHANNELS 3 Xrotation Yrotation Zrotation
			JOINT Spine1
			{
				OFFSET 0.000000 12.508769 -0.658067
				CHANNELS 3 Xrotation Yrotation Zrotation
				JOINT Spine1_split
				{
					OFFSET 0.000000 12.508769 -0.658067
					CHANNELS 3 Xrotation Yrotation Zrotation
					JOINT Spine2
					{
						OFFSET 0.000000 12.508769 -0.658067
						CHANNELS 3 Xrotation Yrotation Zrotation
						JOINT Neck_virtual
						{
							OFFSET 0.000000 0.000000 0.000000
							CHANNELS 3 Xrotation Yrotation Zrotation
							JOINT Neck
							{
								OFFSET 0.000000 14.033295 7.520400
								CHANNELS 3 Xrotation Yrotation Zrotation
								JOINT Head
								{
									OFFSET 0.000000 8.198502 5.703100
									CHANNELS 3 Xrotation Yrotation Zrotation
									JOINT HeadTop_End
									{
										OFFSET 0.000000 17.760803 13.332701
										CHANNELS 3 Xrotation Yrotation Zrotation
										End Site
										{
											OFFSET 0 0 0
										}
									}
								}
							}
						}
						JOINT LeftShoulder_virtual
						{
							OFFSET 0.000000 0.000000 0.000000
							CHANNELS 3 Xrotation Yrotation Zrotation
							JOINT LeftShoulder
							{
								OFFSET 6.292450 5.785301 -0.669000
								CHANNELS 3 Xrotation Yrotation Zrotation
								JOINT LeftShoulder_split
								{
									OFFSET 6.292450 5.785301 -0.669000
									CHANNELS 3 Xrotation Yrotation Zrotation
									JOINT LeftArm
									{
										OFFSET 13.907140 -6.093903 1.965100
										CHANNELS 3 Xrotation Yrotation Zrotation
										JOINT LeftForeArm
										{
											OFFSET 34.140198 0.000000 0.000000
											CHANNELS 3 Xrotation Yrotation Zrotation
											JOINT LeftHand
											{
												OFFSET 40.960209 0.000000 0.000000
												CHANNELS 3 Xrotation Yrotation Zrotation
												End Site
												{
													OFFSET 0 0 0
												}
											}
										}
									}
								}
							}
						}
						JOINT RightShoulder_virtual
						{
							OFFSET 0.000000 0.000000 0.000000
							CHANNELS 3 Xrotation Yrotation Zrotation
							JOINT RightShoulder
							{
								OFFSET -6.292450 5.785301 -0.669000
								CHANNELS 3 Xrotation Yrotation Zrotation
								JOINT RightShoulder_split
								{
									OFFSET -6.292450 5.785301 -0.669000
									CHANNELS 3 Xrotation Yrotation Zrotation
									JOINT RightArm
									{
										OFFSET -13.907140 -6.093903 1.965100
										CHANNELS 3 Xrotation Yrotation Zrotation
										JOINT RightForeArm
										{
											OFFSET -34.140198 0.000000 0.000000
											CHANNELS 3 Xrotation Yrotation Zrotation
											JOINT RightHand
											{
												OFFSET -40.960209 0.000000 0.000000
												CHANNELS 3 Xrotation Yrotation Zrotation
												End Site
												{
													OFFSET 0 0 0
												}
											}
										}
									}
								}
							}
						}
					}
				}
			}
		}
	}
}
MOTION
Frames: 8
Frame Time: 0.03333333
-0.299635 107.216377 10.656845 0.000000 0.000000 0.000000 -14.587505 -2.347170 -5.109344 -35.176249 22.120421 11.384591 42.543578 -6.759876 9.709525 1.473699 -7.251678 -0.569422 -2.164735 -0.036620 -0.991856 0.000000 0.000000 0.000000 -14.288950 -1.664878 -5.098427 -24.883049 -30.129033 -3.679987 35.494635 6.477384 -8.592993 3.030594 7.625636 -5.165103 -2.953748 0.409113 0.421998 0.000000 0.000000 0.000000 -14.437516 -2.638187 -5.505881 5.278885 -1.365777 2.718943 13.377334 -0.867407 -0.223812 0.452111 2.561780 -0.457070 0.000000 0.000000 0.000000 11.888942 -0.301507 -0.377633 11.217037 0.959163 1.452299 -1.523524 1.556770 3.475351 0.000000 0.000000 0.000000 12.213965 -0.169217 -0.466985 0.783865 7.209067 -10.097307 -2.074437 -2.604028 -0.445505 81.766066 -69.442178 10.467506 0.075244 -25.155558 1.346042 0.000000 0.000000 0.000000 12.289051 -0.397037 -0.474728 1.549130 -1.362295 10.697651 5.838552 0.285092 -2.361921 6.049588 35.055058 58.598406 -0.958698 27.542191 0.412817 0.000000 0.000000 0.000000 
-0.275985 107.219360 10.662731 0.000000 0.000000 0.000000 -14.598836 -2.386187 -5.076889 -35.136846 22.224688 11.384529 42.509841 -6.760335 9.702022 1.470293 -7.265390 -0.556414 -2.154678 -0.038556 -0.989110 0.000000 0.000000 0.000000 -14.300165 -1.706199 -5.064758 -24.935419 -30.016103 -3.668530 35.535541 6.447328 -8.615065 3.026521 7.582769 -5.166234 -2.910722 0.402530 0.434134 0.000000 0.000000 0.000000 -14.445063 -2.678785 -5.471804 5.281551 -1.355178 2.709137 13.373868 -0.851419 -0.221104 0.448878 2.550062 -0.453433 0.000000 0.000000 0.000000 11.885797 -0.286576 -0.376641 11.240200 0.959861 1.423036 -1.547469 1.563136 3.477680 0.000000 0.000000 0.000000 12.209970 -0.157135 -0.463074 0.783547 7.220650 -10.149467 -2.078246 -2.568362 -0.453194 81.615501 -69.358331 10.400658 0.076333 -25.235181 1.343602 0.000000 0.000000 0.000000 12.279542 -0.382673 -0.469833 1.546934 -1.359504 10.677800 5.816532 0.287782 -2.362555 6.049949 35.063814 58.568640 -0.963224 27.500724 0.416251 0.000000 0.000000 0.000000 
-0.259530 107.217278 10.670658 0.000000 0.000000 0.000000 -14.606853 -2.417576 -5.041035 -35.097590 22.322460 11.382769 42.472435 -6.758387 9.693540 1.459923 -7.277202 -0.531126 -2.140571 -0.040293 -0.990648 0.000000 0.000000 0.000000 -14.309549 -1.737060 -5.027917 -25.007336 -29.905160 -3.669842 35.602740 6.422919 -8.639011 3.027299 7.561560 -5.167091 -2.879501 0.400501 0.445475 0.000000 0.000000 0.000000 -14.451420 -2.709919 -5.435227 5.281240 -1.349344 2.691337 13.371303 -0.839878 -0.218923 0.449904 2.540291 -0.450817 0.000000 0.000000 0.000000 11.885081 -0.275591 -0.375774 11.272881 0.960323 1.394384 -1.571630 1.553370 3.508640 0.000000 0.000000 0.000000 12.209515 -0.149325 -0.459434 0.783699 7.229165 -10.195347 -2.076524 -2.540294 -0.461033 81.332171 -69.261438 10.207984 0.079528 -25.338880 1.340999 0.000000 0.000000 0.000000 12.271897 -0.372697 -0.465309 1.546236 -1.347305 10.683022 5.798686 0.302842 -2.368994 6.090560 35.059907 58.489936 -0.963379 27.505839 0.419405 0.000000 0.000000 0.000000 
-0.252958 107.207184 10.681278 0.000000 0.000000 0.000000 -14.611670 -2.438674 -5.004104 -35.064088 22.402554 11.380037 42.442478 -6.758855 9.687719 1.444058 -7.288979 -0.499624 -2.129357 -0.041794 -0.996207 0.000000 0.000000 0.000000 -14.317076 -1.755717 -4.991171 -25.096418 -29.807670 -3.688489 35.697253 6.410591 -8.663636 3.028775 7.571761 -5.162800 -2.860735 0.403333 0.453629 0.000000 0.000000 0.000000 -14.455573 -2.728531 -5.398647 5.276720 -1.347863 2.666809 13.368393 -0.833834 -0.217428 0.450202 2.533896 -0.449395 0.000000 0.000000 0.000000 11.884460 -0.269861 -0.374935 11.317349 0.959987 1.371884 -1.592078 1.526254 3.571100 0.000000 0.000000 0.000000 12.210952 -0.146621 -0.456189 0.784695 7.235832 -10.229524 -2.067709 -2.525087 -0.465736 80.960903 -69.158800 9.921742 0.084756 -25.460548 1.337036 0.000000 0.000000 0.000000 12.265637 -0.367992 -0.461255 1.546432 -1.327575 10.711345 5.787910 0.331053 -2.384511 6.166946 35.043283 58.380045 -0.959194 27.554346 0.421351 0.000000 0.000000 0.000000 
-0.256607 107.191925 10.693336 0.000000 0.000000 0.000000 -14.612165 -2.445136 -4.968989 -35.040725 22.455632 11.375975 42.424590 -6.764700 9.686322 1.427243 -7.301407 -0.470594 -2.122241 -0.042998 -1.004646 0.000000 0.000000 0.000000 -14.320506 -1.763226 -4.957004 -25.190836 -29.729915 -3.722419 35.807799 6.410149 -8.685534 3.025308 7.612302 -5.150363 -2.851904 0.409917 0.458077 0.000000 0.000000 0.000000 -14.455976 -2.736286 -5.366018 5.268280 -1.348914 2.638235 13.364190 -0.832793 -0.216566 0.452477 2.531045 -0.448445 0.000000 0.000000 0.000000 11.881689 -0.269195 -0.373986 11.373847 0.959536 1.359779 -1.606326 1.485809 3.661596 0.000000 0.000000 0.000000 12.211284 -0.148357 -0.453493 0.786440 7.240590 -10.249505 -2.050920 -2.523329 -0.467877 80.550975 -69.058663 9.581791 0.090922 -25.592990 1.331618 0.000000 0.000000 0.000000 12.259020 -0.368432 -0.457821 1.547111 -1.302565 10.761232 5.785945 0.367239 -2.407267 6.270086 35.013052 58.253133 -0.950906 27.635102 0.422199 0.000000 0.000000 0.000000 
-0.268157 107.175064 10.703419 0.000000 0.000000 0.000000 -14.606850 -2.434188 -4.938061 -35.028806 22.477895 11.370890 42.415113 -6.776904 9.688844 1.415224 -7.312822 -0.449635 -2.116997 -0.043913 -1.014631 0.000000 0.000000 0.000000 -14.318598 -1.756920 -4.927400 -25.273187 -29.672418 -3.761266 35.913008 6.418485 -8.703101 3.014022 7.672599 -5.133322 -2.849334 0.418710 0.458578 0.000000 0.000000 0.000000 -14.451417 -2.736059 -5.340013 5.256584 -1.350411 2.609370 13.356606 -0.835443 -0.216189 0.454193 2.527782 -0.446119 0.000000 0.000000 0.000000 11.874643 -0.272037 -0.372698 11.440895 0.959468 1.359110 -1.612877 1.435747 3.772337 0.000000 0.000000 0.000000 12.207086 -0.152785 -0.451207 0.789709 7.244710 -10.256618 -2.029557 -2.536811 -0.467635 80.145563 -68.967603 9.231391 0.097087 -25.726806 1.324541 0.000000 0.000000 0.000000 12.250022 -0.372507 -0.454762 1.547826 -1.276063 10.830733 5.793086 0.402536 -2.431788 6.387834 34.965764 58.121713 -0.940802 27.735443 0.422330 0.000000 0.000000 0.000000 
-0.283458 107.161400 10.710686 0.000000 0.000000 0.000000 -14.595455 -2.409786 -4.914312 -35.024872 22.472222 11.362751 42.404632 -6.791590 9.692727 1.409686 -7.318938 -0.439118 -2.112730 -0.044503 -1.024274 0.000000 0.000000 0.000000 -14.309663 -1.742505 -4.903897 -25.330216 -29.631249 -3.793055 35.990671 6.429103 -8.714365 2.992213 7.733572 -5.117705 -2.850852 0.427650 0.455976 0.000000 0.000000 0.000000 -14.440883 -2.728315 -5.322215 5.243214 -1.349859 2.584686 13.344305 -0.838950 -0.215872 0.452437 2.522926 -0.446909 0.000000 0.000000 0.000000 11.862323 -0.275904 -0.371385 11.515269 0.960902 1.368523 -1.611263 1.381317 3.891298 0.000000 0.000000 0.000000 12.196342 -0.157140 -0.449292 0.794695 7.250490 -10.256511 -2.012704 -2.553583 -0.470784 79.771535 -68.887867 8.899644 0.101562 -25.854300 1.316615 0.000000 0.000000 0.000000 12.236541 -0.377494 -0.452139 1.548143 -1.250635 10.916108 5.806010 0.434584 -2.452064 6.513507 34.902055 57.991161 -0.929035 27.842189 0.421897 0.000000 0.000000 0.000000 
-0.299559 107.153732 10.710514 0.000000 0.000000 0.000000 -14.578718 -2.380965 -4.898710 -35.022468 22.447789 11.350909 42.383728 -6.803405 9.695607 1.409067 -7.316172 -0.435223 -2.107799 -0.045028 -1.032269 0.000000 0.000000 0.000000 -14.295921 -1.723469 -4.886349 -25.355231 -29.602405 -3.810536 36.033141 6.435780 -8.718181 2.969032 7.779054 -5.105932 -2.855471 0.434665 0.451593 0.000000 0.000000 0.000000 -14.423850 -2.715925 -5.312358 5.229525 -1.345537 2.567412 13.326714 -0.840630 -0.215303 0.452946 2.515005 -0.449682 0.000000 0.000000 0.000000 11.844379 -0.278303 -0.369699 11.592434 0.963860 1.385015 -1.601150 1.326282 4.006312 0.000000 0.000000 0.000000 12.177695 -0.159119 -0.447714 0.802001 7.259868 -10.258039 -1.998015 -2.573501 -0.476571 79.442743 -68.818596 8.607423 0.103500 -25.971743 1.309012 0.000000 0.000000 0.000000 12.217398 -0.380789 -0.449826 1.548032 -1.229283 11.012326 5.824279 0.459470 -2.467928 6.638736 34.826240 57.862631 -0.917389 27.945975 0.421828 0.000000 0.000000 0.000000 
